<?xml version="1.0" encoding="UTF-8"?>
<!DOCTYPE svg PUBLIC "-//W3C//DTD SVG 1.1//EN" "http://www.w3.org/Graphics/SVG/1.1/DTD/svg11.dtd">
<!-- Creator: CorelDRAW 2019 (64-Bit) -->
<svg xmlns="http://www.w3.org/2000/svg" xml:space="preserve" width="210mm" height="297mm" version="1.1" style="shape-rendering:geometricPrecision; text-rendering:geometricPrecision; image-rendering:optimizeQuality; fill-rule:evenodd; clip-rule:evenodd"
viewBox="0 0 210000 297000"
 xmlns:xlink="http://www.w3.org/1999/xlink"
 xmlns:xodm="http://www.corel.com/coreldraw/odm/2003">
 <defs>
  <style type="text/css">
   <![CDATA[
    .str1 {stroke:#373435;stroke-width:846.7;stroke-miterlimit:22.9256}
    .str4 {stroke:#373435;stroke-width:200;stroke-miterlimit:22.9256}
    .str0 {stroke:#373435;stroke-width:1354.7;stroke-miterlimit:22.9256}
    .str2 {stroke:#373435;stroke-width:846.7;stroke-miterlimit:22.9256;stroke-dasharray:1693.400000 846.700000}
    .str3 {stroke:#FEFEFE;stroke-width:200;stroke-miterlimit:22.9256;stroke-dasharray:400.000000 600.000000}
    .fil1 {fill:#FEFEFE}
    .fil6 {fill:#373435}
    .fil8 {fill:#373435}
    .fil5 {fill:#C97FB0}
    .fil9 {fill:#A8518A}
    .fil0 {fill:#A8518A}
    .fil3 {fill:#783962}
    .fil4 {fill:#FEFEFE;fill-rule:nonzero}
    .fil2 {fill:#373435;fill-rule:nonzero}
    .fil7 {fill:#373435;fill-rule:nonzero}
   ]]>
  </style>
      <clipPath id="id0">
       <path d="M92312.3 70735.9l25457.3 0 0 25462 -25457.3 0 0 -25462z"/>
      </clipPath>
 </defs>
 <g id="Layer_x0020_1">
  <metadata id="CorelCorpID_0Corel-Layer"/>
  <g id="_2158974518000">
   <path class="fil0 str0" d="M98519.6 29949.9c40377.5,0 73110,32732.5 73110,73110 0,40377.5 -32732.5,73110 -73110,73110 -40377.5,0 -73110,-32732.5 -73110,-73110 0,-40377.5 32732.5,-73110 73110,-73110z"/>
   <path class="fil1 str0" d="M98519.6 36641.3c36681.9,0 66418.6,29736.7 66418.6,66418.6 0,36681.9 -29736.7,66418.6 -66418.6,66418.6 -36681.9,0 -66418.6,-29736.7 -66418.6,-66418.6 0,-36681.9 29736.7,-66418.6 66418.6,-66418.6z"/>
   <path class="fil2 str0" d="M69991.1 48772.4c-546.2,27.8 -868.5,69.4 -966.8,125 -196.5,111.1 -259.9,314.4 -190.1,610 69.8,295.5 294.4,779.1 674,1450.6l805.4 1425 810.9 -458.3c344,-194.4 577.5,-364.2 700.7,-509.5 123.3,-145.2 227.5,-371.7 313,-679.3 135.3,-487.2 147.4,-829 36.3,-1025.5 -148.1,-262.1 -444,-489.3 -887.6,-681.6 -443.7,-192.3 -875.6,-277.7 -1295.8,-256.4zm-2639.6 778.7c-209.4,-638.1 136.5,-1211.7 1037.3,-1720.8 573.3,-324 1138.7,-470.7 1696.3,-440.2 497.1,0.1 1030.9,141.4 1601.2,424.1 570.5,282.8 1008.8,618.5 1315,1007.4 62.8,72.6 145,199 246.9,379.2 388.8,687.9 462,1381.4 219.4,2080.4 -242.4,699 -756.8,1270.7 -1543,1715 -491.4,277.8 -766.7,498.1 -825.8,661.2 -59.1,163.1 40.9,474 300.1,932.6l277.8 491.4c379.6,671.6 662.3,1095.3 848.2,1271.2 185.9,175.9 386.3,224.7 601.4,146.3 238.6,-113.2 455.1,2.2 649.5,346.1 120.3,213 159.8,368.9 118.6,467.9 -41.4,99 -223.7,283.1 -547,552.3 -276.3,199.4 -463.6,326.9 -561.8,382.4 -376.8,213 -714.1,333.3 -1011.7,361 -297.7,27.9 -497.5,-48.4 -599.3,-228.5 -101.8,-180.2 -68,-426.3 101.6,-738.2l229.6 -453.9 -2002.9 -3601.1c-1388.7,-2456.9 -2105.9,-3802.2 -2151.4,-4035.8zm10263.1 -5013.3c-162.2,-147.8 -259.6,-275.7 -292.1,-383.8 -91.9,-306.3 195.5,-559.7 862.2,-759.8l216.2 -65c389.3,-77.5 649.2,-111.4 779.9,-101.5 130.6,9.9 229.4,93.2 296.1,250 106.3,223.4 99.2,461.3 -21.5,713.6 -138.7,257.8 5.7,1098.4 433.1,2522 573.5,1910.1 1169.9,3356.7 1789.1,4339.6 619.3,982.9 1181.2,1398.6 1685.7,1247.1 234.3,-70.3 464,-286.6 689.2,-648.9 709.8,-1234.6 615.6,-3347.6 -282.6,-6339l-64.9 -216.1c-194.8,-648.8 -340.4,-1052 -436.8,-1209.6 -96.5,-157.7 -288.9,-291.4 -577.3,-401.4 -311.7,-122.4 -497.4,-282.8 -556.9,-481 -113.6,-378.4 208,-681.2 964.8,-908.4 36.1,-10.9 96,-23.9 179.8,-39.3 83.7,-15.3 152.7,-31.1 206.7,-47.3l610.9 -124.6 719.6 2200.3 211 702.7c351.7,1171.4 535.7,2078.7 552.1,2722.1 23.6,798.3 85,1428.1 184.2,1889.5 104.7,479.3 71.9,1073.6 -98.2,1782.7 -170.2,709.2 -400.3,1235 -690.4,1577.5 -297.2,383.9 -707.1,654.4 -1229.7,811.3 -342.4,102.8 -605.5,142.4 -789.3,119.1 -183.8,-23.4 -419.1,-119.8 -705.7,-289.1 -479.4,-288.2 -834.5,-554.9 -1065.2,-800 -340.7,-349.5 -756.6,-1064.3 -1248,-2144.7 -491.3,-1080.2 -912.8,-2206 -1264.5,-3377.3 -443.6,-1477.6 -796.2,-2324.5 -1057.5,-2540.7zm15762.8 -2324.9c-474.4,-285 -974.2,-407.6 -1499.6,-367.8 -243.9,18.4 -389.7,86 -437.4,202.8 -15.9,39.1 -16.1,161.6 -0.5,368 27,356.5 89.2,804.6 186.5,1344.5l223.3 1454.8 675.5 -51.1c373.7,-47.1 738.6,-211.5 1094.7,-493.1 356.1,-281.7 559.6,-584.8 610.5,-909.5 14.5,-57.6 16.8,-152.2 6.9,-283.5 -36.9,-487.8 -323.5,-909.5 -859.9,-1265.1zm471 3983.3c2.9,37.5 402.4,455.4 1198.7,1253.8 796.2,798.2 1195.8,1216.2 1198.6,1253.7 7.1,93.8 170.6,322 490.5,684.6 319.8,362.6 631.2,674 933.9,934.2 221.9,190.7 340,379.9 354.2,567.5 25.5,337.7 -239.6,574.8 -795.3,711.2 -259.8,57.3 -436.7,89.5 -530.5,96.6 -412.7,31.2 -760.8,-17.9 -1044.2,-147.4 -283.4,-129.6 -432.9,-297.5 -448.5,-503.9 -11.3,-150 34.4,-295 136.9,-434.8 190.8,-222 278.4,-436.3 262.8,-642.6 -9.9,-131.3 -433.9,-622.8 -1271.9,-1474.7 -838,-851.7 -1415,-1369.4 -1730.7,-1553.1 -157.2,-82.4 -273.3,-120.8 -348.4,-115.1 -243.9,18.4 -314,712.5 -210.4,2082 62.4,825.5 118.1,1311.9 166.9,1459.1 48.8,147.3 188,240.5 417.4,279.7 307.2,71.2 470.9,238.1 490.7,500.8 14.2,187.5 -85.6,364.9 -299.4,532.1 -216.7,129.5 -521.9,209.2 -915.9,239 -581.6,44 -944.5,-13.5 -1088.6,-172.4 -100.9,-86.7 -158.4,-223.9 -172.6,-411.5 -11.4,-150.1 1.2,-358.6 37.6,-625.5 123.8,-858.5 128.2,-2047.5 13.3,-3567.1 -73.8,-975.7 -175.8,-1826.5 -306.2,-2552.4 -151.6,-1007.5 -235.3,-1614.4 -250.9,-1820.8 -76.6,-1013.1 98.9,-1686.7 526.5,-2020.9 213.7,-167.2 480,-262.8 799,-286.9 206.4,-15.6 366.6,-18.3 480.6,-8.1 985.4,57.6 1825.6,376.2 2520.4,955.7 694.8,579.6 1071.3,1253.9 1129.5,2023.2 21.3,281.4 2.8,537.5 -55.1,768.4 -84.2,383.6 -285,785.7 -602.3,1205.9 -317.2,420.2 -579.1,638.1 -785.5,653.7 -206.4,15.6 -306.7,61 -301.1,136zm12981.3 -3925.5c-446.9,-315.4 -726.1,-481.5 -837.7,-498.5 -223.2,-34 -398.6,86.8 -526.2,362.5 -127.5,275.5 -249.3,794.6 -365.3,1557.2l-246.2 1618.3 920.8 140.1c390.6,59.4 679.2,70 865.7,31.8 186.7,-38.2 408.5,-151.9 665.7,-341.2 407.2,-299.7 627.8,-561.1 661.7,-784.3 45.3,-297.6 -47.2,-659 -277.5,-1084.2 -230.3,-425.2 -517.3,-759 -861,-1001.7zm-2557.2 -1017.1c229.2,-631.2 855.4,-868.9 1878.4,-713.2 651,99 1186.4,332.7 1606.1,701 391,306.9 723.7,747.6 997.8,1322.2 274.2,574.6 411.8,1109.3 412.5,1604.3 4.6,95.9 -8.8,246.1 -39.9,450.7 -118.9,781.2 -489.4,1371.9 -1111.8,1772.1 -622.2,400.1 -1379.8,532.3 -2272.7,396.5 -557.9,-84.9 -910.6,-81.5 -1057.7,10.3 -147.2,91.8 -260.5,398 -339.7,918.8l-84.9 558.1c-116,762.6 -155.3,1270.5 -117.6,1523.7 37.7,253.1 165.2,415.2 382.8,486.4 257.6,58.2 356.6,282.6 297.2,673.2 -36.8,241.9 -102,388.9 -195.6,441.3 -93.6,52.3 -350.7,84.7 -771.2,96.7 -340.5,-13.6 -566.6,-29 -678.1,-46 -427.9,-65.1 -767.4,-178.6 -1018.8,-340.6 -251.3,-161.8 -361.3,-345.1 -330.2,-549.7 31.1,-204.6 209.6,-377.4 535.6,-518l460.9 -215.4 647.6 -4069.3c424.5,-2790.1 690.9,-4291.1 799.3,-4503.1zm12782.4 1715.9c440.4,114.7 730.5,200 870.3,255.7 157.3,62.7 267.5,167.3 330.6,314 73.6,171.1 72,352.8 -4.6,545 -83.6,209.8 -231.8,353.2 -444.9,430.4 -181.6,49.2 -401.2,397.1 -658.9,1043.7 -195,489.4 -734.7,2046.6 -1618.8,4671.6 -48.7,122.3 -114.9,313.7 -198.3,574.1 -83.5,260.4 -157.5,484.1 -221.9,671.1 -64.4,187 -117.5,332.9 -159.3,437.8l-250.8 629.2 786.6 313.4c384.5,153.3 617.8,215.9 699.8,187.8 82.1,-28.1 178.8,-181.9 290.3,-461.6 153.2,-384.5 357.4,-566.4 612.5,-545.7 303.9,-0.4 491,114.6 561.1,345.2 94.6,219.9 2.7,679.5 -275.9,1378.5 -209,524.4 -386.8,818.2 -533.4,881.2 -220.1,94.6 -924.3,-94.9 -2112.8,-568.6 -908.8,-362.2 -1400.1,-628.8 -1473.6,-799.9 -42.2,-199 201.2,-1064.1 730.3,-2595.1 898.1,-2558.6 1415.1,-4033.7 1550.9,-4425.1l731 -2139.2 -456.3 -303.4c-304.3,-202.2 -400.7,-443.2 -289.3,-722.8 83.6,-209.8 213.6,-320 390,-330.7 176.5,-10.7 558.3,60.4 1145.4,213.4zm12669.4 5535c51.1,-15.2 101.3,-9.4 151.1,17.5 248.2,134.1 300,493.5 155.2,1078.2 -114,408.9 -220.1,704.4 -318.5,886.5 -214.6,397.3 -469.8,612.3 -765.4,645 -67.7,6.3 -151,-17.4 -250.4,-71 -148.9,-80.5 -245.6,-218.3 -290,-413.3 -44.3,-195 -12.1,-412.9 96.6,-653.6 74.1,-216.6 52,-383.5 -66.3,-500.9 -118.4,-117.3 -504.2,-363.3 -1157.4,-737.5 -99.2,-53.6 -221.2,-124.9 -365.7,-213.6 -144.5,-88.7 -241.6,-146.5 -291.3,-173.4 -480,-259.3 -769.2,-297.9 -867.6,-115.9 -116.2,215.2 -364.3,803 -744.1,1763.3 -379.7,960.3 -557.5,1457.7 -533.4,1492.2 15.3,51 206.3,132.8 573.2,245.4 366.8,112.6 659.4,46.1 877.6,-199.5 209.3,-229.1 449.5,-238.4 720.6,-27.7 206.3,132.8 296.9,261.9 271.9,387.4 -25,125.5 -199.9,528.3 -524.4,1208.3l-362.2 670.5c-250.4,463.5 -463.5,679.8 -639.2,648.9 -234.5,-41 -387.8,-252.2 -459.9,-633.3 -79.7,-406.6 -293.4,-703.8 -641.1,-891.6l-546.2 -295.1 -558 1270.4c-383.6,947.5 -567.7,1446.8 -552.5,1497.8 5,109.6 421.2,387.9 1249,835.1 579.4,312.9 958.8,491.2 1138.5,534.9 179.5,43.5 410.3,2.4 692.1,-123.4 323.8,-124.4 551.9,-150.9 684.3,-79.4 281.5,152.1 254.7,597.4 -80.1,1336.1l-147.5 273.1c-322,596 -631.9,813.4 -929.9,652.4 -99.3,-53.6 -192.9,-157.6 -280.5,-311.9 -95.3,-179.8 -316.9,-363.6 -664.5,-551.4 -115.9,-62.6 -381.4,-184.6 -796.6,-366.2 -481.4,-217.2 -763.4,-348.2 -846.2,-392.9 -347.7,-187.8 -618.1,-419.5 -811.4,-695 -330.7,-456.7 -467.4,-926.1 -410,-1408.3 57.3,-482.3 351.1,-1253.8 881.4,-2314.6 601.8,-1193.2 1208.3,-2533.6 1819.4,-4021.1 410.5,-997.3 754.2,-1752.4 1031.4,-2265.6l67.1 -124.2c128.9,-80.1 656.7,130.3 1583.8,631.1l695.2 375.6c1390.5,751.2 2127.8,1128.1 2211.9,1130.7z"/>
   <path class="fil2 str0" d="M69047.4 145791.8c-178.4,-496.1 -566.7,-956.5 -1164.9,-1381.6 -107.3,-76.2 -248.6,-153.5 -423.8,-231.8 -155.4,-41.2 -348.8,52.3 -580,280.3 -231.3,228.1 -635.7,748.5 -1213.3,1561.5 -632,889.5 -1169.2,1661.9 -1611.6,2316.9l-2013.5 2931.6 985.7 561.8c908.9,507.3 1810.7,773 2705.3,797 894.7,24 1510.8,-201.8 1848.6,-677.3 218,-306.7 222.5,-719 13.4,-1236.8 -169.6,-443.6 -400,-768.9 -691.5,-976 -153.3,-108.9 -281.5,-188.5 -384.5,-238.5 -30.6,-21.8 -79.3,-50.6 -146.1,-86.6 -66.8,-35.9 -115.6,-64.8 -146.2,-86.6 -567.5,-403.2 -742.3,-758.1 -524.3,-1064.8 163.4,-230.1 531.8,-326.2 1104.8,-288.3 964.7,39.2 1654.1,-232.7 2068.2,-815.6 272.4,-383.3 330.3,-838.5 173.7,-1365.2zm-2081.6 -3209.9c549.4,136.4 1077.2,384.4 1583.2,744 598.2,425 1088.4,929 1470.4,1512 382,583.1 542.9,1095.6 482.8,1537.5 -85.9,608.3 -248.8,1081.1 -488.5,1418.5 -76.3,107.4 -290.7,295.5 -643.3,564.4 -352.5,268.7 -621.4,533.5 -806.7,794.3 -98.1,138 -51.4,413.4 139.9,826.4 206.7,423.8 292.6,911.9 258,1464.1 -34.8,552.4 -172,997.3 -411.8,1334.7 -10.9,15.4 -33.8,39.4 -68.7,72.4 -34.9,32.9 -63.2,64.6 -85,95.4 -338.2,313.6 -780.5,570.6 -1326.8,771 -546.2,200.4 -1090.6,292.5 -1633.1,276.4 -531.6,-31.5 -1197,-215.7 -1996.1,-552.7 -799.2,-337 -1505.5,-723.4 -2119,-1159.3 -506.2,-359.6 -851.5,-685.8 -1035.9,-978.4 -215.2,-314.4 -430.9,-433.1 -647.3,-355.9 -231.6,66.1 -454.8,22.9 -669.6,-129.6 -199.4,-141.7 -293.7,-301.1 -283.3,-478.3 -17.7,-104.9 82.3,-310.8 300.3,-617.5 141.6,-199.4 258.3,-347.4 349.9,-443.9 307.6,-335.3 518.1,-526.1 631.8,-572.4 113.5,-46.2 273.4,-19.3 479.1,80.8 297.9,165.5 406.7,369.8 326.4,612.7 -95.7,232.2 -51.4,413.5 132.7,544.3 122.6,87.2 308.2,-11.7 556.9,-296.7 248.6,-284.9 881.8,-1127.5 1899.7,-2527.7l604.8 -851.2c1035.3,-1457.1 1544,-2238.1 1526.3,-2343 -8.9,-52.5 -28.7,-89.6 -59.4,-111.4 -138,-98.1 -465.9,-42.7 -983.8,166.5 -338.6,151.8 -569.3,184 -692,96.9 -92,-65.4 -158,-216.2 -197.9,-452.3 -48.9,-288.6 122.8,-708.9 515.1,-1261.2 359.6,-506 654.3,-758.3 884,-756.6 209.9,-35.6 438.7,80.8 686.5,349.3 35.1,48 98.7,104.7 190.7,170.1 260.7,185.2 637.3,337.3 1129.7,456.4zm10094 10693.6c46.6,-102.8 116.3,-484.4 209.1,-1144.7 92.7,-660.3 104.9,-1006.1 36.4,-1037.1 -68.6,-31.1 -314.4,146.6 -737.6,533.3 -423.1,386.6 -677.4,674.1 -762.9,862.6 -85.4,188.5 94.6,383.8 540.1,585.7 445.5,202 683.9,268.7 714.9,200.2zm504.9 -4326.2c273.9,-103 496.6,-115.7 667.9,-38.1 188.6,85.5 334.4,265.3 437.4,539.1 134.4,432.8 91.3,1404.9 -129.1,2916.3 -220.4,1511.4 -544.6,3058.3 -972.8,4640.8 -369.2,1361.3 -468.9,2173.4 -298.9,2436.4 152.9,255.3 175,502.8 66.2,742.7 -85.5,188.5 -229.4,278.2 -431.9,269 -185.3,-1.4 -552.1,-126.3 -1100.5,-374.9 -788.3,-357.4 -1261.9,-634.1 -1420.9,-830.2 -79.6,-97.9 -88.2,-215.5 -26.1,-352.6 62.2,-137 180.1,-248.8 353.5,-335.5 173.6,-86.6 345.3,-112.1 515,-76.4 305.2,55.8 555,-130.6 749.2,-559 155.3,-342.7 309,-841.1 461,-1495.3 228,-867.5 324,-1386.9 288.1,-1558.2 -36,-171.3 -311.1,-373.4 -825.2,-606.4l-205.6 -93.2 -1105.2 -501.1 -1159.8 1054.5c-236.5,202.7 -541.8,477.4 -916,824.3 -374.2,346.8 -597.8,555.3 -670.9,625.5 -203.8,176.1 -329,315.6 -375.6,418.4 -77.6,171.3 20.6,319.2 294.7,443.5 120,54.3 197.2,146.1 231.6,275.3 34.4,129.3 24.4,253.9 -30,373.8 -54.4,120 -143.8,203.4 -268.4,250.2 -149.4,56.2 -658.7,-50.8 -1527.8,-320.8 -426.9,-152.2 -683.1,-247.7 -768.8,-286.5 -325.5,-147.6 -508.7,-313.3 -549.3,-497 -37.5,-99.7 -25.2,-217.9 37,-355.1 69.9,-154.2 181,-274.2 333.6,-360 152.5,-85.7 305.9,-93.7 460.1,-23.8 171.4,77.7 431.3,-62.7 779.8,-421.2 300.2,-297.7 688.6,-653.5 1165.6,-1067.4 476.8,-413.8 881.6,-782.9 1214.6,-1107.2 348.4,-358.5 1524.4,-1539.9 3527.9,-3544.4 560.1,-551.7 959.9,-886.9 1199.6,-1005.5zm7766.1 2841c59.2,-5.6 126.6,-4.6 202,3.1 75.5,7.8 138.2,7.7 188.3,0 50,-7.9 84.2,-9.7 102.6,-5.5 91.6,21.1 411.8,181.8 960.6,481.8 530.4,295.9 876.8,636.3 1039.2,1021.1 129.9,358.2 340.9,657.7 633,898.7 306.2,263.6 429.7,523.6 370.6,780.3 -33.8,146.8 -150.1,274.4 -348.8,383.1 -135.4,84.7 -441.3,72.2 -918.1,-37.6l-247.5 -56.9c-394.9,-129.5 -631.9,-232.3 -710.9,-308.5 -79.1,-76 -100.3,-235.3 -63.7,-477.9 51.8,-393.5 11.2,-678.1 -122.2,-853.6 -133.3,-175.5 -392.5,-307.5 -777.6,-396.1 -861.7,-198.3 -1754.8,242.9 -2679.4,1323.6 -580.6,677.2 -1008,1611.8 -1282.4,2803.5 -168.8,733.4 -212.2,1341.3 -130.1,1823.5 212.4,1593.4 777,2495.7 1693.8,2706.7 733.4,168.8 1521.5,-151.8 2364.4,-961.7 444,-419 704,-793.7 779.9,-1123.6 54.9,-238.4 6.1,-404.1 -146.2,-497.1 -166.5,-115.5 -215.9,-320 -148.4,-613.3 50.6,-220.1 126,-337.9 226.1,-353.4 100.2,-15.6 379.4,29.3 837.7,134.8 1008.5,232.2 1457.9,586.6 1348.2,1063.3 -42.2,183.3 -198.7,359.7 -469.4,529.1 -243.9,136.9 -460.9,366.9 -651.1,690 -171.8,327.3 -466,703.6 -882.6,1129 -416.4,425.4 -836.9,763.1 -1261.1,1012.9 -311.6,179.3 -577.7,287 -798.4,323 -220.7,36.1 -582.7,15.5 -1086.3,-61.7 -448.5,-64.7 -718.5,-107.5 -810.3,-128.6 -348.3,-80.2 -660,-277.5 -935.2,-591.8 -595.5,-600.4 -991.9,-1415.7 -1189.2,-2445.7 -197.3,-1030.1 -169.3,-2095.1 83.9,-3195.3 143.5,-623.4 391.2,-1280.6 743.5,-1971.8 254.9,-520.6 514.1,-933.9 777.7,-1240.1 263.5,-306.2 669.4,-685.8 1217.8,-1138.7 589.3,-463 1285.8,-679.1 2089.6,-648.6zm5963.8 1413.2c275.6,-148.8 788.4,-194.8 1538.9,-137.7 394,29.9 663.2,88.1 807.6,174.6 181.8,89.3 264.2,246.5 247.1,471.6 -14.2,187.6 -92,342.1 -233.3,463.4 -161.5,138.8 -282.8,742.7 -364.1,1812.1 -41.4,544 -26.7,847 44.1,909.1l28.1 2.1c112.6,8.6 465.4,-412.8 1058.4,-1264 593.1,-851.2 898.1,-1389.4 915.2,-1614.5 35.7,-469.1 428.7,-675 1179.2,-617.9 187.5,14.2 336.9,35 448,62.3 502.3,94.7 786.6,201.3 853.2,319.6 17.3,20.1 23.1,67.7 17.4,142.8 -11.4,150.1 -99.9,322.6 -265.8,517.5 -165.8,195 -334.5,304.9 -506.1,329.5 -327.6,88.4 -598.6,303.7 -813.3,645.9 -151.3,252.6 -603.2,859.8 -1355.5,1821.6 -602.5,727.8 -913.7,1223.1 -933.7,1485.7 -11.4,150.1 431.3,655.5 1328.2,1516.1 843.5,818.9 1503.7,1567.2 1980.5,2245 460.9,638.8 865.3,1028.1 1213.2,1167.7 350.8,102.1 516.1,284.6 496.2,547.2 -18.6,243.9 -191.6,410 -519.1,498.3 -327.4,88.4 -725.7,114.7 -1194.7,79 -581.5,-44.2 -922.9,-145.5 -1024.1,-304.2 -135.8,-199 -153.4,-464.5 -52.7,-796.6 48.9,-147.2 74.8,-239.6 77.6,-277.1 11.4,-150 -95.4,-356.3 -320.8,-618.8 -225.4,-262.3 -767.1,-831.9 -1625,-1708.4 -262.9,-265.3 -464.4,-469.3 -604.5,-612 -332.2,-346 -556,-504.6 -671.5,-475.6 -79.2,50.6 -158.2,591.8 -236.6,1623.6 -69.8,919.3 -70.7,1428.7 -2.9,1528.2 50.6,79.3 257.8,208.3 621.6,386.9 382.5,180 568.2,345 556.8,495.1 -10,131.3 -107.3,293.8 -291.8,487.3 -203.4,192.1 -473.8,275.4 -811.5,249.7 -281.4,-21.4 -533.9,-50 -757.6,-85.8 -502.3,-94.9 -840.1,-181.8 -1013.3,-261.1 -173.3,-79.1 -273,-195.2 -299,-348.1 -75.3,-251.1 -4,-443.8 213.7,-578.2 216.4,-115.6 407.4,-1138.9 573,-3069.9l128.3 -1688.4 216 -2842.2c39.7,-770.6 41.5,-1228.1 5.2,-1372.4 -36.2,-144.2 -157.5,-224.3 -363.9,-240 -168.8,-12.8 -309.5,-84.8 -422.2,-216 -112.7,-131.2 -163.4,-271.8 -152,-421.9 14.3,-187.7 110.1,-331.3 287.5,-431.1zm13241.6 1507.5c-506.3,-206.8 -815.7,-305.9 -928.3,-297.4 -225.1,17.1 -368.8,174.3 -431.2,471.6 -62.2,297.1 -64.2,830.3 -5.8,1599.5l124.1 1632.2 928.7 -70.6c393.9,-29.9 677.5,-84.5 850.7,-163.7 173.3,-79.2 363.9,-239.9 571.9,-482.2 329.4,-383.5 485.5,-687.8 468.4,-913 -22.8,-300.1 -194.2,-631.5 -514.2,-994 -320,-362.5 -674.8,-623.2 -1064.3,-782.4zm-2720.4 -415.9c81.4,-666.6 638.1,-1039.1 1669.9,-1117.5 656.6,-49.9 1230.8,57.4 1722.7,321.9 450,211.1 873.2,565.8 1269.5,1064 396.4,498.2 650.7,988.3 762.8,1470.4 25.9,92.4 46.7,241.8 62.4,448.2 59.9,787.9 -168.3,1446.8 -684.8,1976.6 -516.3,529.9 -1224.8,829 -2125.3,897.5 -562.8,42.7 -905.6,125.4 -1028.4,247.9 -122.7,122.6 -164.2,446.4 -124.3,971.7l42.8 562.9c58.5,769.2 134.4,1272.9 228.1,1511.1 93.6,238.2 254.3,367.4 482.3,387.8 264.1,-1.2 411.1,195.2 441.1,589.2 18.5,243.9 -12,401.9 -91.4,474 -79.5,72 -322.7,161.3 -729.7,267.6 -334.9,63.3 -558.6,99.2 -671.1,107.7 -431.5,32.8 -788,-1.5 -1069.2,-102.8 -281.3,-101.1 -429.8,-255 -445.5,-461.3 -15.7,-206.4 119.4,-414.9 405.4,-625.2l400.7 -313.5 -284.1 -4110.8c-213.9,-2814.1 -291.9,-4336.6 -233.9,-4567.4zm12535.3 1022.4c-31,-108.6 -224.9,-444.5 -581.6,-1007.8 -356.8,-563.4 -571.4,-834.7 -643.7,-814.1 -72.4,20.7 -144.7,315.4 -216.9,884 -72.2,568.6 -79.9,952.4 -23,1151.3 56.9,199 320.5,231.3 790.7,96.9 470.4,-134.5 695.2,-238 674.5,-310.3zm-2415.7 -3624.3c142.1,-255.8 303.6,-409.6 484.4,-461.3 199.1,-56.9 426.5,-14.3 682.3,127.8 382.7,242.8 979.1,1011.6 1789.6,2306.3 810.4,1294.6 1564.6,2683.6 2262.7,4166.9 599.8,1276.6 1049.7,1960.1 1349.4,2050.5 281.8,95.6 458.8,269.9 531.2,523.2 56.9,199 5.3,360.5 -155,484.7 -142.1,118.8 -502.6,261.1 -1081.5,426.6 -832.1,237.9 -1372.3,333.6 -1620.4,287.1 -124,-23.2 -206.7,-107.2 -248.1,-251.9 -41.4,-144.7 -23.9,-306.2 52.2,-484.6 76.2,-178.3 190.6,-308.9 343.1,-391.6 268.7,-155.1 338.4,-458.8 209.1,-911 -103.4,-361.8 -308.9,-841.2 -616.6,-1438.2 -387.8,-808.8 -650.8,-1266.8 -789.1,-1374.1 -138.3,-107.2 -478.8,-83.2 -1021.5,72l-217.1 62 -1166.8 333.6 -201.3 1554.5c-49,307.6 -103.9,714.6 -164.5,1221.2 -60.7,506.6 -96.2,810.3 -106.5,911.1 -41.3,266.2 -46.4,453.5 -15.4,562.1 51.7,180.8 222.3,229.9 511.7,147.2 126.6,-36.2 244.9,-16.3 354.8,60 109.9,76.2 182.9,177.6 219.1,304.3 36.2,126.6 22,248.1 -42.6,364.4 -77.5,139.6 -534.9,387.7 -1372.2,744.5 -423.8,160.4 -681,253.5 -771.4,279.3 -343.7,98.3 -590.5,90.5 -740.4,-23.1 -93.1,-51.7 -160.3,-149.9 -201.7,-294.7 -46.5,-162.7 -39.5,-326.2 21.2,-490.3 60.8,-164.1 172.5,-269.5 335.3,-316 180.9,-51.8 288.1,-327 321.7,-825.9 36,-421.2 101.8,-943.8 197.4,-1568 95.5,-624.2 165.1,-1167.5 209,-1630.2 33.5,-498.8 165.1,-2160.6 394.5,-4985.4 69.7,-783 157.4,-1297.4 263.4,-1543zm7800.6 -2819.8c41.5,-42.6 93.6,-85.3 156.1,-128.2 62.6,-42.8 110.5,-83.4 143.7,-121.6 33.1,-38.4 58.1,-61.8 74.9,-70.5 83.5,-43.1 431.7,-127.3 1044.5,-252.8 595.9,-116.7 1080.3,-80.7 1452.8,108.2 330.6,189.5 685.2,281.9 1063.8,277.1 404,3.5 666.2,122.2 787,356.3 69,133.8 62.7,306.4 -18.8,517.8 -48.6,152 -290.3,340.1 -725.1,564.3l-225.8 116.4c-385.1,156.3 -632.4,230.9 -741.9,223.8 -109.5,-7 -228.6,-114.9 -357.4,-323.7 -214.6,-333.9 -429.4,-524.9 -644.6,-572.6 -215.2,-47.8 -498.3,18.8 -849.5,199.9 -785.9,405.3 -1182.7,1319 -1190.3,2741.3 -5.8,892 271.7,1881.5 832.1,2968.4 344.9,668.9 704.4,1161 1078.6,1476 1191.5,1079.2 2205.3,1403.2 3041.5,972 668.8,-344.9 1063.4,-1098.7 1183.6,-2261.4 68.2,-606.8 24.7,-1060.7 -130.5,-1361.6 -112.1,-217.4 -256.4,-312.4 -432.7,-285 -201.8,19.4 -371.6,-104.8 -509.5,-372.3 -103.5,-200.7 -122.1,-339.3 -55.7,-415.8 66.4,-76.7 308.6,-222.7 726.6,-438.2 919.8,-474.3 1491.8,-494 1716,-59.2 86.2,167.1 80.7,402.9 -16.5,707 -97.8,262.1 -114.9,577.8 -51.4,947.3 80.3,360.9 98.8,838.2 55.6,1432 -43,593.7 -145.9,1123.1 -308.3,1587.9 -122.1,338.1 -255.6,592.2 -400.8,762.3 -145.2,170.2 -434.8,388.3 -869.1,654.6 -384.1,240.4 -618,382.1 -701.6,425.2 -317.8,163.9 -683.1,214.6 -1096.2,152.5 -842.5,-73.6 -1671.7,-440 -2487.6,-1098.8 -816.1,-658.8 -1482.7,-1489.9 -2000.1,-2493.3 -293.2,-568.6 -528.6,-1230.4 -706.3,-1985.5 -141.6,-562.1 -210.7,-1045 -207.3,-1449 3.3,-404 68,-956 194,-1656 150.7,-734 542.8,-1348.9 1176.2,-1844.8zm5574.1 -2845.8c117,-290.5 482.3,-653.4 1096.2,-1088.7 322.4,-228.6 566.7,-355.7 733,-381.3 197,-47.4 360.8,21 491.4,205.2 108.8,153.4 147.6,321.9 116.4,505.5 -35.8,210 256.5,752.2 876.9,1627.1 315.6,445.1 520.4,668.8 614.5,671.4l23 -16.3c92.1,-65.3 94.4,-614.9 7.2,-1648.6 -87.1,-1033.8 -195.9,-1642.7 -326.6,-1826.9 -272,-383.7 -101.1,-793.2 512.9,-1228.5 153.4,-108.8 281.6,-188.2 384.6,-238.1 447,-247.9 733.9,-347.4 860.6,-298.9 26.2,4.5 61.1,37.4 104.6,98.8 87.1,122.8 129.1,312 126,568 -3.1,255.9 -62.8,448.2 -179.1,576.8 -195.7,277.1 -266.8,615.9 -213.5,1016.3 44.9,291 84.9,1046.9 120.1,2267.4 1.1,944.9 77.8,1524.8 230.2,1739.6 87,122.8 750.4,229 1990.3,318.6 1172,91.6 2157.9,245.8 2957.6,463 762.7,197.3 1322.4,238.6 1679.4,123.9 335.1,-145.4 578.9,-110.6 731.2,104.3 141.5,199.5 114.4,437.8 -81.2,714.9 -195.6,277.1 -485.3,551.6 -869,823.7 -475.8,337.3 -803.2,477.3 -982.4,419.9 -231.6,-66.5 -414.7,-259.5 -549.2,-579.4 -56.4,-144.5 -95.5,-232.1 -117.2,-262.8 -87.1,-122.8 -301,-213.3 -642,-271.3 -341,-58 -1121.6,-150.4 -2341.6,-277.1 -371.6,-36.3 -657,-64.6 -855.9,-85 -476.7,-54.2 -750.2,-33.2 -820.5,62.8 -28.7,89.5 256.2,556.4 854.7,1400.5 533.3,752.1 857.8,1144.7 973.6,1177.9 89.7,28.8 331.4,-4.2 725.4,-99.1 409.4,-105.8 657.6,-97.3 744.7,25.5 76.1,107.4 105,294.6 86.6,561.3 -33.8,277.7 -188.8,514.5 -465,710.3 -230.2,163.3 -442.8,302.5 -637.9,417.8 -447.1,247.7 -762.5,396.5 -946.4,446.1 -184,49.8 -334.8,24.1 -452.5,-76.9 -218.3,-145.1 -286.5,-339 -204.7,-581.5 92.6,-227.1 -413.8,-1136.6 -1519.4,-2728.3l-979.5 -1381.3 -1648.7 -2325.2c-461.5,-618.4 -752.3,-971.6 -872.3,-1059.5 -120,-87.9 -264.4,-72 -433.3,47.7 -138.1,97.9 -292.4,132.4 -462.9,103.4 -170.5,-29 -299.3,-104.9 -386.3,-227.7 -108.9,-153.5 -126.9,-325.2 -54,-515.3z"/>
   <g>
    <path class="fil3 str1" d="M74416.5 130103.1c-11580.2,-32183.6 -15379.7,-57321.1 14053.5,-65901 -37178.8,-13719.7 -24893.2,48888.8 -19933.9,66350l5880.4 -449z"/>
    <path class="fil3 str1" d="M88590.2 130028.5c-11026,-32377.7 -14393.4,-57576.7 15182.8,-65650 -36937.8,-14356 -25728.9,48454.2 -21070.1,65998l5887.3 -348z"/>
    <path class="fil0 str1" d="M67247.5 84734.7l-734.1 37440.4c-185.9,10767.7 -9.6,12317.7 8441.6,17679.4 1853.7,1189.3 4352.4,1595.9 8378.9,1557.2l39816.4 545.5c2564.3,-7.9 6107.2,-544 6393,-8602.4l959.6 -27060.8c332,-9362.3 -324.6,-41490.6 -11784.3,-41388.6l-24509.9 -742.8c-17776.9,260.1 -25537.1,-1767.5 -26961.2,20572.1z"/>
    <g>
     <path class="fil2" d="M83339.2 140988.4c233.7,2.9 420.9,194.9 418,428.6 -2.9,233.7 -194.9,420.9 -428.6,418l10.6 -846.6zm-864.7 829.3l25.8 -846.4 5.6 0.2 403.7 10 429.6 6.9 -10.6 846.6 -436.2 -6.9 -412.3 -10.2 -5.6 -0.2zm0 0c-233.7,-7.1 -417.4,-202.4 -410.3,-436.1 7.1,-233.7 202.4,-417.4 436.1,-410.3l-25.8 846.4zm-807 -885.8c233.3,14.2 411,215.1 396.8,448.4 -14.2,233.3 -215.1,411 -448.4,396.8l51.6 -845.2zm-928 758.2l119.8 -838.2 0.4 0 281.3 35.3 304.7 29 221.8 15.7 -51.6 845.2 -240 -17.1 -327.3 -31.2 -308.7 -38.7 -0.4 0zm0 0c-231.4,-33 -392.2,-247.6 -359.2,-479 33,-231.4 247.6,-392.2 479,-359.2l-119.8 838.2zm-647.4 -1004.4c224.3,65.8 352.7,301.2 286.9,525.5 -65.8,224.3 -301.2,352.7 -525.5,286.9l238.6 -812.4zm-1118.2 388l480.6 -697 43.6 33.3 136.5 84.8 153.4 77.4 172 70.2 132.1 43.3 -238.6 812.4 -184.7 -60.7 -231.2 -94.4 -217.2 -109.8 -202.9 -126.2 -43.6 -33.3zm0 0c-192.4,-132.7 -240.9,-396.4 -108.2,-588.8 132.7,-192.4 396.4,-240.9 588.8,-108.2l-480.6 697zm38.7 -1207.6c127.2,196.1 71.3,458.4 -124.8,585.6 -196.1,127.2 -458.4,71.3 -585.6,-124.8l710.4 -460.8zm-1073.9 -435.4l813 -236.8 21.3 81.2 65.7 204.5 72.1 183.3 78.4 163.3 23.4 39.9 -710.4 460.8 -60.8 -103.5 -107 -222.7 -93.3 -237.1 -81.1 -251.7 -21.3 -81.2zm0 0c-65.3,-224.5 63.6,-459.6 288.1,-524.9 224.5,-65.3 459.6,63.6 524.9,288.1l-813 236.8zm657.7 -1014.3c36.6,230.9 -120.8,447.9 -351.7,484.5 -230.9,36.6 -447.9,-120.8 -484.5,-351.7l836.2 -132.8zm-936.4 -729.6l842 -90 30.7 316.9 37.4 319.2 26.3 183.5 -836.2 132.8 -29.7 -207.3 -39.8 -338.2 -30.7 -316.9zm0 0c-24.8,-232.5 143.5,-441.2 376,-466 232.5,-24.8 441.2,143.5 466,376l-842 90zm780.7 -916.1c14.8,233.3 -162.4,434.5 -395.7,449.3 -233.3,14.8 -434.5,-162.4 -449.3,-395.7l845 -53.6zm-891.8 -809.3l846.6 9.6 -0.5 -25.8 23.3 445.2 22.4 380.3 -845 53.6 -22.8 -387.1 -23.5 -450 -0.5 -25.8zm0.5 25.8l-0.6 -13 0.1 -12.8 0.5 25.8zm-0.4 -39.9l846.6 9.6 -0.1 14.1 -846.6 -9.6 0.1 -14.1zm0 0c2.6,-233.7 194.4,-421.1 428.1,-418.5 233.7,2.6 421.1,194.4 418.5,428.1l-846.6 -9.6zm856.2 -837c-2.6,233.7 -194.4,421.1 -428.1,418.5 -233.7,-2.6 -421.1,-194.4 -418.5,-428.1l846.6 9.6zm-837 -856.3l846.6 9.6 -1.1 106.1 -8.5 740.6 -846.6 -9.6 8.5 -740.6 1.1 -106.1zm0 0c2.6,-233.7 194.4,-421.1 428.1,-418.5 233.7,2.6 421.1,194.4 418.5,428.1l-846.6 -9.6zm856.1 -837c-2.6,233.7 -194.4,421.1 -428.1,418.5 -233.7,-2.6 -421.1,-194.4 -418.5,-428.1l846.6 9.6zm-837.1 -856.2l846.6 9.4 -2.1 196 -7.4 650.8 -846.6 -9.6 7.4 -650.6 2.1 -196zm0 0c2.5,-233.7 194.3,-421.1 428,-418.6 233.7,2.5 421.1,194.3 418.6,428l-846.6 -9.4zm856 -837.2c-2.5,233.7 -194.3,421.1 -428,418.6 -233.7,-2.5 -421.1,-194.3 -418.6,-428l846.6 9.4zm-837.1 -856.1l846.6 9.4 -3.1 284 -6.4 562.7 -846.6 -9.4 6.4 -562.7 3.1 -284zm0 0c2.5,-233.7 194.3,-421.1 428,-418.6 233.7,2.5 421.1,194.3 418.6,428l-846.6 -9.4zm856 -837.2c-2.5,233.7 -194.3,421.1 -428,418.6 -233.7,-2.5 -421.1,-194.3 -418.6,-428l846.6 9.4zm-837.3 -856.1l846.6 9.4 -4 370.2 -5.3 476.5 -846.6 -9.4 5.3 -476.5 4 -370.2zm0 0c2.5,-233.7 194.3,-421.1 428,-418.6 233.7,2.5 421.1,194.3 418.6,428l-846.6 -9.4zm855.9 -837.2c-2.5,233.7 -194.3,421.1 -428,418.6 -233.7,-2.5 -421.1,-194.3 -418.6,-428l846.6 9.4zm-837.3 -856l846.6 9.2 -4.9 454.9 -4.4 391.9 -846.6 -9.4 4.4 -391.7 4.9 -454.9zm0 0c2.5,-233.7 194.2,-421.2 427.9,-418.7 233.7,2.5 421.2,194.2 418.7,427.9l-846.6 -9.2zm855.9 -837.4c-2.5,233.7 -194.2,421.2 -427.9,418.7 -233.7,-2.5 -421.2,-194.2 -418.7,-427.9l846.6 9.2zm-837.3 -855.9l846.6 9.2 -5.9 538 -3.4 308.7 -846.6 -9.2 3.4 -308.7 5.9 -538zm0 0c2.5,-233.7 194.2,-421.2 427.9,-418.7 233.7,2.5 421.2,194.2 418.7,427.9l-846.6 -9.2zm855.9 -837.5c-2.5,233.7 -194.2,421.2 -427.9,418.7 -233.7,-2.5 -421.2,-194.2 -418.7,-427.9l846.6 9.2zm-837.4 -855.8l846.6 9.2 -6.7 619.9 -2.5 226.7 -846.6 -9.2 2.5 -226.7 6.7 -619.9zm0 0c2.5,-233.7 194.2,-421.2 427.9,-418.7 233.7,2.5 421.2,194.2 418.7,427.9l-846.6 -9.2zm855.8 -837.5c-2.5,233.7 -194.2,421.2 -427.9,418.7 -233.7,-2.5 -421.2,-194.2 -418.7,-427.9l846.6 9.2zm-837.3 -855.8l846.6 9.2 -7.6 700.5 -1.7 146.1 -846.6 -9.2 1.7 -146.1 7.6 -700.5zm0 0c2.5,-233.7 194.2,-421.2 427.9,-418.7 233.7,2.5 421.2,194.2 418.7,427.9l-846.6 -9.2zm855.9 -837.5c-2.5,233.7 -194.2,421.2 -427.9,418.7 -233.7,-2.5 -421.2,-194.2 -418.7,-427.9l846.6 9.2zm-837.2 -855.9l846.6 9.4 -8.6 780.2 -0.8 66.3 -846.6 -9.2 0.8 -66.5 8.6 -780.2zm0 0c2.5,-233.7 194.3,-421.1 428,-418.6 233.7,2.5 421.1,194.3 418.6,428l-846.6 -9.4zm855.9 -837.3c-2.5,233.7 -194.3,421.1 -428,418.6 -233.7,-2.5 -421.1,-194.3 -418.6,-428l846.6 9.4zm-837.3 -856l846.6 9.4 -9.3 846.6 -846.6 -9.4 9.3 -846.6zm0 0c2.5,-233.7 194.3,-421.1 428,-418.6 233.7,2.5 421.1,194.3 418.6,428l-846.6 -9.4zm856 -837.3c-2.5,233.7 -194.3,421.1 -428,418.6 -233.7,-2.5 -421.1,-194.3 -418.6,-428l846.6 9.4zm-837.2 -856l846.6 9.4 -9.4 846.6 -846.6 -9.4 9.4 -846.6zm0 0c2.5,-233.7 194.3,-421.1 428,-418.6 233.7,2.5 421.1,194.3 418.6,428l-846.6 -9.4zm856 -837.3c-2.5,233.7 -194.3,421.1 -428,418.6 -233.7,-2.5 -421.1,-194.3 -418.6,-428l846.6 9.4zm-837.1 -856l846.6 9.4 -9.5 846.6 -846.6 -9.4 9.5 -846.6zm0 0c2.5,-233.7 194.3,-421.1 428,-418.6 233.7,2.5 421.1,194.3 418.6,428l-846.6 -9.4zm856.2 -837.1c-2.6,233.7 -194.4,421.1 -428.1,418.5 -233.7,-2.6 -421.1,-194.4 -418.5,-428.1l846.6 9.6zm-837 -856.3l846.6 9.6 -9.6 846.7 -846.6 -9.6 9.6 -846.7zm0 0c2.6,-233.7 194.4,-421.1 428.1,-418.5 233.7,2.6 421.1,194.4 418.5,428.1l-846.6 -9.6zm856.2 -837c-2.6,233.7 -194.4,421.1 -428.1,418.5 -233.7,-2.6 -421.1,-194.4 -418.5,-428.1l846.6 9.6zm-836.8 -856.2l846.6 9.6 -9.8 846.6 -846.6 -9.6 9.8 -846.6zm0 0c2.6,-233.7 194.4,-421.1 428.1,-418.5 233.7,2.6 421.1,194.4 418.5,428.1l-846.6 -9.6zm856.4 -837c-2.7,233.7 -194.5,421.1 -428.2,418.4 -233.7,-2.7 -421.1,-194.5 -418.4,-428.2l846.6 9.8zm-836.8 -856.4l846.6 9.8 -9.8 846.6 -846.6 -9.8 9.8 -846.6zm0 0c2.7,-233.7 194.5,-421.1 428.2,-418.4 233.7,2.7 421.1,194.5 418.4,428.2l-846.6 -9.8zm856.6 -836.8c-2.7,233.7 -194.6,421 -428.3,418.3 -233.7,-2.7 -421,-194.6 -418.3,-428.3l846.6 10zm-836.6 -856.6l846.6 10 -10 846.6 -846.6 -10 10 -846.6zm0 0c2.7,-233.7 194.6,-421 428.3,-418.3 233.7,2.7 421,194.6 418.3,428.3l-846.6 -10zm856.8 -836.6c-2.8,233.7 -194.7,421 -428.4,418.2 -233.7,-2.8 -421,-194.7 -418.2,-428.4l846.6 10.2zm-836.5 -856.8l846.6 10.2 -10.1 846.6 -846.6 -10.2 10.1 -846.6zm0 0c2.8,-233.7 194.7,-421 428.4,-418.2 233.7,2.8 421,194.7 418.2,428.4l-846.6 -10.2zm856.9 -836.5c-2.8,233.7 -194.7,421 -428.4,418.2 -233.7,-2.8 -421,-194.7 -418.2,-428.4l846.6 10.2zm-836.2 -856.8l846.6 10.2 -10.4 846.6 -846.6 -10.2 10.4 -846.6zm0 0c2.8,-233.7 194.7,-421 428.4,-418.2 233.7,2.8 421,194.7 418.2,428.4l-846.6 -10.2zm857.1 -836.3c-2.8,233.7 -194.8,420.9 -428.5,418.1 -233.7,-2.8 -420.9,-194.8 -418.1,-428.5l846.6 10.4zm-836.1 -857.1l846.6 10.4 -10.5 846.7 -846.6 -10.4 10.5 -846.7zm0 0c2.8,-233.7 194.8,-420.9 428.5,-418.1 233.7,2.8 420.9,194.8 418.1,428.5l-846.6 -10.4zm857.4 -836.1c-2.9,233.7 -194.9,420.9 -428.6,418 -233.7,-2.9 -420.9,-194.9 -418,-428.6l846.6 10.6zm-835.9 -857.3l846.6 10.8 -0.1 14.2 -10.6 832.3 -846.6 -10.6 10.6 -832.5 0.1 -14.2zm0 0c2.9,-233.7 195,-420.8 428.7,-417.9 233.7,2.9 420.8,195 417.9,428.7l-846.6 -10.8zm857.6 -835.8c-2.9,233.7 -195,420.8 -428.7,417.9 -233.7,-2.9 -420.8,-195 -417.9,-428.7l846.6 10.8zm-835.5 -857.7l846.6 11.2 -1.2 93.6 -9.9 752.9 -846.6 -10.8 9.9 -753.3 1.2 -93.6zm0 0c3,-233.7 195.2,-420.7 428.9,-417.7 233.7,3 420.7,195.2 417.7,428.9l-846.6 -11.2zm857.8 -835.4c-3,233.7 -195.2,420.7 -428.9,417.7 -233.7,-3 -420.7,-195.2 -417.7,-428.9l846.6 11.2zm-835.3 -857.9l846.6 11.4 -2.3 173.9 -9 672.6 -846.6 -11.2 9 -672.8 2.3 -173.9zm0 0c3.1,-233.7 195.3,-420.7 429,-417.6 233.7,3.1 420.7,195.3 417.6,429l-846.6 -11.4zm858.1 -835.2c-3.1,233.7 -195.3,420.7 -429,417.6 -233.7,-3.1 -420.7,-195.3 -417.6,-429l846.6 11.4zm-834.9 -858.2l846.6 11.6 -3.5 255.4 -8.2 591.2 -846.6 -11.4 8.2 -591.4 3.5 -255.4zm0 0c3.2,-233.7 195.4,-420.7 429.1,-417.5 233.7,3.2 420.7,195.4 417.5,429.1l-846.6 -11.6zm858.4 -835c-3.2,233.7 -195.4,420.7 -429.1,417.5 -233.7,-3.2 -420.7,-195.4 -417.5,-429.1l846.6 11.6zm-834.7 -858.4l846.6 12 -4.8 338 -7.1 508.4 -846.6 -11.6 7.1 -508.8 4.8 -338zm0 0c3.3,-233.7 195.6,-420.6 429.3,-417.3 233.7,3.3 420.6,195.6 417.3,429.3l-846.6 -12zm858.7 -834.6c-3.3,233.7 -195.6,420.6 -429.3,417.3 -233.7,-3.3 -420.6,-195.6 -417.3,-429.3l846.6 12zm-834.4 -858.7l846.6 12.2 -6.1 422.2 -6.1 424.3 -846.6 -12 6.1 -424.5 6.1 -422.2zm0 0c3.3,-233.7 195.7,-420.5 429.4,-417.2 233.7,3.3 420.5,195.7 417.2,429.4l-846.6 -12.2zm859 -834.4c-3.3,233.7 -195.7,420.5 -429.4,417.2 -233.7,-3.3 -420.5,-195.7 -417.2,-429.4l846.6 12.2zm-833.9 -859.1l846.6 12.6 -7.6 507.9 -5.1 338.6 -846.6 -12.2 5.1 -339 7.6 -507.9zm0 0c3.4,-233.7 195.9,-420.4 429.6,-417 233.7,3.4 420.4,195.9 417,429.6l-846.6 -12.6zm859.4 -834c-3.4,233.7 -195.9,420.4 -429.6,417 -233.7,-3.4 -420.4,-195.9 -417,-429.6l846.6 12.6zm-833.6 -859.4l846.6 13 -9.2 595.4 -3.8 251 -846.6 -12.6 3.8 -251.4 9.2 -595.4zm0 0c3.5,-233.7 196.1,-420.3 429.8,-416.8 233.7,3.5 420.3,196.1 416.8,429.8l-846.6 -13zm859.6 -833.6c-3.5,233.7 -196.1,420.3 -429.8,416.8 -233.7,-3.5 -420.3,-196.1 -416.8,-429.8l846.6 13zm-833.2 -859.6l846.6 13.2 -10.8 684.5 -2.6 161.9 -846.6 -13 2.6 -162.1 10.8 -684.5zm0 0c3.6,-233.7 196.2,-420.3 429.9,-416.7 233.7,3.6 420.3,196.2 416.7,429.9l-846.6 -13.2zm860.1 -833.4c-3.6,233.7 -196.2,420.3 -429.9,416.7 -233.7,-3.6 -420.3,-196.2 -416.7,-429.9l846.6 13.2zm-832.7 -860l846.6 13.6 -12.7 775.8 -1.2 70.6 -846.6 -13.2 1.2 -71 12.7 -775.8zm0 0c3.7,-233.7 196.4,-420.2 430.1,-416.5 233.7,3.7 420.2,196.4 416.5,430.1l-846.6 -13.6zm860.5 -832.8c-3.8,233.7 -196.6,420.1 -430.3,416.3 -233.7,-3.8 -420.1,-196.6 -416.3,-430.3l846.6 14zm-832.3 -860.6l846.6 14 -14.3 846.6 -846.6 -14 14.3 -846.6zm0 0c3.8,-233.7 196.6,-420.1 430.3,-416.3 233.7,3.8 420.1,196.6 416.3,430.3l-846.6 -14zm862 -832.3c-3.9,233.7 -196.8,420 -430.5,416.1 -233.7,-3.9 -420,-196.8 -416.1,-430.5l846.6 14.4zm-824.2 -860.8l846.6 14.4 -22.4 846.4 -846.6 -14.4 22.4 -846.4zm0 0c3.9,-233.7 196.8,-420 430.5,-416.1 233.7,3.9 420,196.8 416.1,430.5l-846.6 -14.4zm871.2 -823.8c-8.5,233.6 -204.9,416.2 -438.5,407.7 -233.6,-8.5 -416.2,-204.9 -407.7,-438.5l846.2 30.8zm-806.5 -876.5l846.2 30.8 -39.7 845.7 -846.2 -30.8 39.7 -845.7zm0 0c8.5,-233.6 204.9,-416.2 438.5,-407.7 233.6,8.5 416.2,204.9 407.7,438.5l-846.2 -30.8zm890.1 -805.5c-13.5,233.3 -213.9,411.5 -447.2,398 -233.3,-13.5 -411.5,-213.9 -398,-447.2l845.2 49.2zm-786.2 -893.8l845.2 49.2 -59 844.6 -845.2 -49.2 59 -844.6zm0 0c13.5,-233.3 213.9,-411.5 447.2,-398 233.3,13.5 411.5,213.9 398,447.2l-845.2 -49.2zm913.3 -784.6c-19.1,233 -223.6,406.3 -456.6,387.2 -233,-19.1 -406.3,-223.6 -387.2,-456.6l843.8 69.4zm-763.3 -912.3l843.8 69.4 -80.5 842.9 -843.8 -69.4 80.5 -842.9zm0 0c19.1,-233 223.6,-406.3 456.6,-387.2 233,19.1 406.3,223.6 387.2,456.6l-843.8 -69.4zm941.7 -760c-25.4,232.4 -234.5,400.1 -466.9,374.7 -232.4,-25.4 -400.1,-234.5 -374.7,-466.9l841.6 92.2zm-730.4 -944.3l838.6 117.4 -25.2 160.6 -83 666.3 -841.6 -92.2 86 -691.5 25.2 -160.6zm0 0c32.4,-231.5 246.5,-393 478,-360.6 231.5,32.4 393,246.5 360.6,478l-838.6 -117.4zm969.8 -719.1c-32.4,231.5 -246.5,393 -478,360.6 -231.5,-32.4 -393,-246.5 -360.6,-478l838.6 117.4zm-684.1 -964.3l834 145.6 -114 589.4 -35.9 229.3 -838.6 -117.4 40.5 -257.5 114 -589.4zm0 0c40.2,-230.3 259.5,-384.4 489.8,-344.2 230.3,40.2 384.4,259.5 344.2,489.8l-834 -145.6zm1002.3 -667.8c-48.8,228.6 -273.8,374.4 -502.4,325.6 -228.6,-48.8 -374.4,-273.8 -325.6,-502.4l828 176.8zm-629.8 -1018.3l819.8 211.4 -2.4 8.6 -187.6 798.3 -828 -176.8 195.8 -832.9 2.4 -8.6zm0 0c58.3,-226.3 289.3,-362.5 515.6,-304.2 226.3,58.3 362.5,289.3 304.2,515.6l-819.8 -211.4zm1049.9 -603.4c-58.3,226.3 -289.3,362.5 -515.6,304.2 -226.3,-58.3 -362.5,-289.3 -304.2,-515.6l819.8 211.4zm-553.2 -1035.6l809.2 249.4 -211.6 629.3 -44.4 156.9 -819.8 -211.4 55 -194.9 211.6 -629.3zm0 0c68.8,-223.4 305.9,-348.7 529.3,-279.9 223.4,68.8 348.7,305.9 279.9,529.3l-809.2 -249.4zm1099.5 -522.2c-80.3,219.5 -323.5,332.3 -543,252 -219.5,-80.3 -332.3,-323.5 -252,-543l795 291zm-447.3 -1089.1l777.2 336 -197.1 419.8 -132.8 333.3 -795 -291 150.6 -378.3 197.1 -419.8zm0 0c92.7,-214.6 342,-313.3 556.6,-220.6 214.6,92.7 313.3,342 220.6,556.6l-777.2 -336zm1151.8 -393c-106,208.3 -361.1,291.2 -569.4,185.2 -208.3,-106 -291.2,-361.1 -185.2,-569.4l754.6 384.2zm-302.8 -1133.5l726.6 434.6 -256 394.9 -167.8 304 -754.6 -384.2 195.8 -354.4 256 -394.9zm0 0c120,-200.6 380,-266 580.6,-146 200.6,120 266,380 146,580.6l-726.6 -434.6zm1203.6 -226.5c-134.3,191.3 -398.5,237.5 -589.8,103.2 -191.3,-134.3 -237.5,-398.5 -103.2,-589.8l693 486.6zm-121.7 -1154.4l653.4 538.6 -423.8 474 -107.9 141.8 -693 -486.6 147.5 -193.8 423.8 -474zm0 0c148.7,-180.4 415.6,-206.1 596,-57.4 180.4,148.7 206.1,415.6 57.4,596l-653.4 -538.6zm1217.6 3.2c-175.8,154 -443.4,136.4 -597.4,-39.4 -154,-175.8 -136.4,-443.4 39.4,-597.4l558 636.8zm138.8 -1175.5l504.2 680.2 -181.1 123.2 -461.9 372.1 -558 -636.8 515.7 -415.5 181.1 -123.2zm0 0c187.8,-139.2 453,-99.8 592.2,88 139.2,187.8 99.8,453 -88,592.2l-504.2 -680.2zm1192.4 248.5c-198.3,123.8 -459.6,63.5 -583.4,-134.8 -123.8,-198.3 -63.5,-459.6 134.8,-583.4l448.6 718.2zm333.5 -1118.1l392.6 750.2 -497.9 237.5 -228.2 130.4 -448.6 -718.2 284.2 -162.4 497.9 -237.5zm0 0c207.1,-108.4 463,-28.3 571.4,178.8 108.4,207.1 28.3,463 -178.8,571.4l-392.6 -750.2zm1123.6 455.1c-220,79 -462.5,-35.3 -541.5,-255.3 -79,-220 35.3,-462.5 255.3,-541.5l286.2 796.8zm545.9 -1056.9l238.2 812.6 -158.4 41.6 -625.7 202.7 -286.2 -796.8 673.7 -218.5 158.4 -41.6zm0 0c224.3,-65.7 459.7,62.9 525.4,287.2 65.7,224.3 -62.9,459.7 -287.2,525.4l-238.2 -812.6zm1038.5 616.9c-227.5,53.7 -455.6,-87.2 -509.3,-314.7 -53.7,-227.5 87.2,-455.6 314.7,-509.3l194.6 824zm656.6 -985.2l155.8 832.2 -391.8 64.6 -420.6 88.4 -194.6 -824 459.4 -96.6 391.8 -64.6zm0 0c229.8,-43 451,108.4 494,338.2 43,229.8 -108.4,451 -338.2,494l-155.8 -832.2zm976.9 715.1c-231.3,33.6 -446.3,-126.6 -479.9,-357.9 -33.6,-231.3 126.6,-446.3 357.9,-479.9l122 837.8zm734.5 -928.7l92.8 841.6 -546.7 51.6 -280.6 35.5 -122 -837.8 309.8 -39.3 546.7 -51.6zm0 0c232.4,-25.6 441.6,142 467.2,374.4 25.6,232.4 -142,441.6 -374.4,467.2l-92.8 -841.6zm924.8 778.9c-233,18.8 -437.3,-154.9 -456.1,-387.9 -18.8,-233 154.9,-437.3 387.9,-456.1l68.2 844zm787.5 -888.7l47.8 845.4 -608.4 27.9 -226.9 15.4 -68.2 -844 247.3 -16.8 608.4 -27.9zm0 0c233.4,-13.1 433.5,165.4 446.6,398.8 13.1,233.4 -165.4,433.5 -398.8,446.6l-47.8 -845.4zm885.9 817.3c-233.6,8.7 -430.2,-173.7 -438.9,-407.3 -8.7,-233.6 173.7,-430.2 407.3,-438.9l31.6 846.2zm821.3 -863.2l18.8 846.4 -571.3 8.9 -268.8 7.9 -31.6 -846.2 281.6 -8.1 571.3 -8.9zm0 0c233.7,-5.1 427.5,180.1 432.6,413.8 5.1,233.7 -180.1,427.5 -413.8,432.6l-18.8 -846.4z"/>
    </g>
    <g>
     <path class="fil4" d="M72590.6 100455.5c-8,467.5 -393.5,840 -861,832 -467.5,-8 -840,-393.5 -832,-861l1693 29zm-1637.1 -3414.6l1693 28 -27 1646.5 -28.9 1740.1 -1693 -29 28.9 -1739.1 27 -1646.5zm0 0c7.7,-467.5 393,-840.2 860.5,-832.5 467.5,7.7 840.2,393 832.5,860.5l-1693 -28zm1798.4 -5041.5c-12.8,467.3 -402.3,835.8 -869.6,823 -467.3,-12.8 -835.8,-402.3 -823,-869.6l1692.6 46.6zm-1573.3 -3443.9l1691.8 72.4 -9.8 207.2 -59.9 1570.6 -48.8 1593.7 -1692.6 -46.6 49 -1605.1 60.5 -1585 9.8 -207.2zm0 0c19.9,-467.1 415,-829.6 882.1,-809.7 467.1,19.9 829.6,415 809.7,882.1l-1691.8 -72.4zm2017.2 -4964.3c-37.7,466 -446.3,813.2 -912.3,775.5 -466,-37.7 -813.2,-446.3 -775.5,-912.3l1687.8 136.8zm-1305.3 -3533.3l1681.4 200 -167.4 1286.7 -148.8 1376.6 -59.9 670 -1687.8 -136.8 62.5 -699.2 152.6 -1410.6 167.4 -1286.7zm0 0c55.2,-464.3 476.4,-795.9 940.7,-740.7 464.3,55.2 795.9,476.4 740.7,940.7l-1681.4 -200zm2665.4 -4681.1c-108,454.9 -564.5,736 -1019.4,628 -454.9,-108 -736,-564.5 -628,-1019.4l1647.4 391.4zm-485.5 -3689.1l1580.8 607 -406.3 979.2 -362 1021.1 -325.9 1077.8 -1.1 4 -1647.4 -391.4 17.7 -68.4 347.7 -1149.6 390.2 -1100.5 406.3 -979.2zm0 0c167.6,-436.5 657.4,-654.5 1093.9,-486.9 436.5,167.6 654.5,657.4 486.9,1093.9l-1580.8 -607zm4203.6 -3279.9c-334.3,326.8 -870.5,320.8 -1197.3,-13.5 -326.8,-334.3 -320.8,-870.5 13.5,-1197.3l1183.8 1210.8zm1772.8 -3274.2l806 1489.2 -459.7 221.9 -766.4 462.9 -710.7 526.1 -642 574.1 -1183.8 -1210.8 756.8 -676.5 837.7 -619.9 902.4 -545.1 459.7 -221.9zm0 0c411.2,-222.5 925.1,-69.6 1147.6,341.6 222.5,411.2 69.6,925.1 -341.6,1147.6l-806 -1489.2z"/>
    </g>
    <g>
     <path class="fil5" d="M81159.9 117347.6l-411.1 14796.4c694.9,4541.8 865.6,6610.1 9561,6734.5l32281.7 446.5c2489.4,19.7 3848.7,238.9 4103.9,-6903l518.3 -14515c234.2,-6553.3 -111.4,-9569.2 -6780.1,-9853.6l-30489.3 -374.4c-7559.5,-322.4 -8592.8,2769.5 -8784.4,9668.6z"/>
     <path id="1" class="fil6" d="M82003.3 117370.8l-408.6 14707 24.7 161.9c594.9,3901.9 866.7,5683.3 8700.3,5795.4l32281.7 446.5 0 0 202.6 2c1828.1,18.7 2829.3,29 3048,-6091.4l518.3 -14515c112.1,-3136.7 93.1,-5413.3 -695.7,-6837.7 -735.9,-1329.1 -2280.2,-2015.1 -5274.1,-2142.7l0 -0.3 -30466.1 -374.1 -23.2 0c-3472,-148 -5407.3,438.3 -6454,1798.8 -1087.4,1413.4 -1362.8,3768.6 -1453.9,7049.6zm-843.4 -23.2l-411.1 14796.4c694.9,4541.8 865.6,6610.1 9561,6734.5l32281.7 446.5c2489.4,19.7 3848.7,238.9 4103.9,-6903l518.3 -14515c234.2,-6553.3 -111.4,-9569.2 -6780.1,-9853.6l-30489.3 -374.4c-7559.5,-322.4 -8592.8,2769.5 -8784.4,9668.6z"/>
    </g>
    <g>
     <g style="clip-path:url(#id0)">
      <image x="92312.3" y="70735.9" width="25457.3" height="25462" xlink:href="purplebackpack_Images\purplebackpack_ImgID1.png"/>
     </g>
    </g>
    <path class="fil1 str2" d="M105465.1 71905.4c6218.2,0 11259,5040.9 11259,11259.1 0,6218.1 -5040.8,11259 -11259,11259 -6218.2,0 -11259.1,-5040.9 -11259.1,-11259 0,-6218.2 5040.9,-11259.1 11259.1,-11259.1z"/>
    <path class="fil7 str3" d="M101719.4 79819.9c-394.5,-190.5 -892.9,-237.8 -1495,-141.9 -108,17.2 -236.8,53.7 -386.3,109.1 -116.1,65.9 -176.4,233.9 -180.9,503.8 -4.5,269.8 58.3,813.8 188.7,1632.1 142.6,895.5 273.3,1666.3 392,2312.2l511.1 2910.7 911.6 -240.2c834.4,-227.9 1524,-595 2068.6,-1101.3 544.8,-506.3 778.9,-998.6 702.7,-1477.3 -49.2,-308.8 -286.4,-556 -711.7,-741.5 -358.7,-164.5 -684.7,-223.4 -978.1,-176.6 -154.3,24.5 -276.6,51.9 -366.8,82.1 -30.9,4.9 -76.6,16.1 -137.1,33.8 -60.5,17.5 -106.2,28.7 -137.1,33.7 -571.2,90.9 -881.5,-18 -930.7,-326.7 -36.9,-231.6 125.8,-503 487.8,-813.9 595,-538.1 845.8,-1100.4 752.4,-1687.1 -61.5,-386 -291.9,-689.6 -691.2,-911zm-3102.5 -693.2c405.2,-238.7 862.6,-398.5 1372.1,-479.7 602.1,-95.9 1186.1,-82.1 1752,41.5 565.9,123.6 959.4,334 1180.9,631.2 302.9,410.8 481.5,786 535.6,1125.7 17.2,108.1 -0.6,344.4 -53.3,709.1 -52.8,364.5 -58.2,678.1 -16.4,940.5 22.1,139 210,275.2 563.7,409 369.3,131.1 704.2,370.6 1005,718.4 300.8,347.9 478.2,691.7 532.3,1031.3 2.5,15.5 2.9,43.1 1.4,83 -1.6,39.8 0.1,75.2 5,106 -18.2,382.8 -131,792.7 -338.5,1229.3 -207.5,436.8 -476.8,808.2 -808,1114.2 -333.7,290.7 -835.6,568.5 -1505.8,833.5 -670.1,265.1 -1314.1,446.8 -1931.6,545.1 -509.5,81.2 -904.1,88.7 -1183.8,22.4 -310.5,-61.4 -507.5,-6.2 -591,165.4 -98.9,174.1 -256.5,278.3 -472.6,312.7 -200.7,31.9 -349.5,-7.6 -446.4,-118.9 -71.5,-51.9 -132,-232.2 -181.1,-541 -32,-200.7 -48.9,-356.4 -50.7,-466.9 -12.7,-377.9 1.3,-613.6 41.8,-707.1 40.5,-93.6 150.9,-170.5 331.3,-230.9 273,-75.2 456.2,-17.3 550,173.6 78.3,193.3 210,275.2 395.3,245.7 123.5,-19.7 176.2,-186.3 157.8,-500.1 -18.3,-313.7 -132.8,-1182 -343.6,-2604.8l-136.5 -856.9c-233.6,-1466.7 -386.2,-2226 -457.8,-2278 -35.8,-26 -69.1,-36.5 -100,-31.5 -138.9,22.1 -301.2,245.8 -486.8,671.2 -112.5,287.1 -230.6,440.3 -354.1,460 -92.7,14.8 -219.5,-36.2 -380.6,-153 -196.9,-142.8 -339.6,-492.1 -428.1,-1047.9 -81.1,-509.5 -53.1,-830.6 84,-963.2 103.9,-143.3 307.4,-207.4 610.6,-192.3 48.8,8.1 119.4,4.7 212.1,-10.1 262.4,-41.8 574.4,-170.6 935.8,-386.5zm8668.8 -1333.2c194.1,-173.4 599.8,-309.2 1217.4,-407.6 324.3,-51.6 553,-56.5 686.3,-14.3 164.3,37.1 261.1,148.4 290.6,333.6 24.6,154.4 -8.5,294.2 -99.3,419.5 -103.9,143.2 -85.7,654.8 54.5,1534.8 71.3,447.8 141.5,689.9 210.7,726.4l23.1 -3.7c92.6,-14.7 296.7,-423.2 612.1,-1225.5 315.6,-802.2 458.6,-1296 429.1,-1481.2 -61.5,-386 216.5,-628.1 834.1,-726.5 154.3,-24.6 279.1,-36.6 374.2,-35.9 424.2,-20.1 674.7,11.3 751.2,94.1 17.8,13 31.7,50.4 41.5,112.1 19.7,123.5 -18.7,280 -115.2,469.5 -96.4,189.6 -211.6,310.8 -345.7,363.7 -247.7,134.5 -425.4,360.8 -533.1,678.6 -73.6,233.4 -322,811.2 -745,1733.5 -346.9,704.3 -503.2,1164.6 -468.7,1380.7 19.6,123.5 474.9,446.8 1365.5,969.8 839.5,499.6 1517.1,977.3 2033.1,1433.5 495.5,427.5 897.4,664.4 1205.4,710.3 303.3,15 472,130.6 506.5,346.7 31.9,200.7 -75.9,368.4 -323.7,502.8 -247.6,134.4 -564.5,232.4 -950.5,293.9 -478.6,76.2 -774.1,59.9 -886.4,-48.8 -148.1,-134.8 -213.4,-345.9 -195.9,-633.8 11.2,-128.3 14.3,-208 9.4,-238.9 -19.6,-123.5 -145.8,-269.6 -378.4,-438.4 -232.8,-168.7 -780.2,-524.8 -1642.5,-1068.2 -263.6,-163.8 -465.7,-290 -606.5,-378.3 -335.1,-215.8 -546.5,-300.8 -634.2,-255.2 -54.4,56.2 -13.9,508.8 121.3,1358 120.5,756.6 217.7,1168.5 291.8,1235.8 56.2,54.4 248.5,118.8 576.9,193 343.9,71.9 525.7,169.7 545.4,293.2 17.2,108 -30.2,258.1 -142.1,450.1 -127.3,194.3 -330,313.7 -607.9,357.9 -231.5,36.9 -441.1,62.4 -629,76.5 -424.2,20.1 -713.9,14.8 -869.2,-15.9 -155.2,-30.7 -258.2,-105.4 -308.7,-223.9 -109.2,-188.5 -88.7,-357.9 61.4,-508.5 152.7,-135.1 110.1,-999 -127.8,-2591.7l-221.3 -1389.5 -372.6 -2339.1c-116.2,-630.6 -202.9,-1000.7 -260,-1110.3 -56.9,-109.7 -170.4,-150.9 -340.2,-123.9 -139,22.1 -266.6,-9 -383,-93.3 -116.3,-84.5 -184.4,-188.4 -204,-311.9 -24.6,-154.3 25.2,-289 149.4,-403.7z"/>
    <g>
     <path class="fil8 str4" d="M124100.1 118133.7l-502.6 7825.9c171,2659.3 4862.3,2451.8 5254.2,-309.1l-2086.3 -8035.8c-699.6,-1669.4 -2549.2,-1287.1 -2665.3,519zm1467.6 -298.6c467.4,0 846.3,368.3 846.3,822.7 0,454.3 -378.9,822.7 -846.3,822.7 -467.4,0 -846.3,-368.4 -846.3,-822.7 0,-454.4 378.9,-822.7 846.3,-822.7zm560.3 6621.8c893,-74.6 1660.1,382 1713.5,1019.9 53.2,637.9 -627.5,1215.5 -1520.5,1290.1 -893,74.6 -1660.2,-382 -1713.5,-1019.8 -53.3,-638 627.5,-1215.6 1520.5,-1290.2z"/>
     <path class="fil1 str4" d="M124334.4 118320.6l-447.1 7466c152.1,2536.9 4325.9,2338.9 4674.6,-294.9l-1856.1 -7666.3c-622.5,-1592.7 -2268.1,-1227.9 -2371.4,495.2zm1233.3 -485.5c467.4,0 846.3,368.3 846.3,822.7 0,454.3 -378.9,822.6 -846.3,822.6 -467.4,0 -846.3,-368.3 -846.3,-822.6 0,-454.4 378.9,-822.7 846.3,-822.7zm560.3 6621.8c893,-74.6 1660.1,382 1713.5,1019.9 53.2,637.9 -627.5,1215.5 -1520.5,1290.1 -893,74.6 -1660.2,-382 -1713.6,-1019.9 -53.2,-637.9 627.6,-1215.5 1520.6,-1290.1z"/>
    </g>
    <g>
     <path class="fil8 str4" d="M72875.3 100923.1l502.6 7825.9c-171,2659.2 -4862.3,2451.7 -5254.2,-309.1l2086.3 -8035.9c699.6,-1669.4 2549.2,-1287 2665.3,519.1zm-1467.6 -298.6c-467.4,0 -846.3,368.3 -846.3,822.7 0,454.3 378.9,822.7 846.3,822.7 467.4,0 846.4,-368.4 846.4,-822.7 0,-454.4 -379,-822.7 -846.4,-822.7zm-560.3 6621.8c-893,-74.6 -1660.1,382 -1713.5,1019.9 -53.2,637.9 627.5,1215.5 1520.5,1290.1 893.1,74.6 1660.2,-382 1713.5,-1019.9 53.3,-637.9 -627.5,-1215.5 -1520.5,-1290.1z"/>
     <path class="fil1 str4" d="M72641 101109.9l447.1 7466c-152.1,2537 -4325.9,2339 -4674.6,-294.9l1856.1 -7666.3c622.5,-1592.6 2268.2,-1227.9 2371.4,495.2zm-1233.3 -485.4c-467.4,0 -846.3,368.3 -846.3,822.7 0,454.3 378.9,822.6 846.3,822.6 467.4,0 846.4,-368.3 846.4,-822.6 0,-454.4 -379,-822.7 -846.4,-822.7zm-560.3 6621.8c-892.9,-74.6 -1660.1,382 -1713.5,1019.9 -53.2,637.9 627.5,1215.5 1520.6,1290.1 893,74.6 1660.1,-382 1713.5,-1019.9 53.2,-637.9 -627.6,-1215.5 -1520.6,-1290.1z"/>
    </g>
    <path class="fil9 str1" d="M120433.6 108053.4c6521.5,1289.1 6294.9,3273 6780.1,9853.6 -4389.8,-53.3 -10813.3,-1526.3 -13867.1,-1467.3 -6776,130.9 -7430,1258.4 -17170.2,1140.2 -1221.1,-14.7 -13795.3,-217.4 -15016.5,-232.3 722.8,-5768.6 678.4,-9362.7 8784.4,-9668.6 10163.1,124.8 20326.3,249.6 30489.3,374.4z"/>
    <path class="fil9 str1" d="M84035.8 64280.3l-5818.6 -2011.7c6119.1,-819 7063.9,-1186.7 15457.8,1901.2l-9639.2 110.5z"/>
    <path class="fil9 str1" d="M99338.1 64380.6l-5783.2 -2111.3c6132.3,-713.9 7083.2,-1065.3 15422.9,2166.3l-9639.7 -55z"/>
   </g>
  </g>
 </g>
</svg>
